<svg width="77" height="71" viewBox="0 0 77 71" fill="none" xmlns="http://www.w3.org/2000/svg">
<g id="icon">
<g id="Stroke 1 Copy 7" filter="url(#filter0_i_50_3364)">
<path fill-rule="evenodd" clip-rule="evenodd" d="M13.8825 23.6826C9.33793 34.2757 0 38.2258 0 38.2258C12.4973 66.4196 30.5462 62.8041 30.5462 62.8041C30.5462 62.8041 45.6938 52.3772 34.0229 23.8338C34.0229 23.8338 24.687 27.783 13.8825 23.6826Z" fill="url(#paint0_linear_50_3364)"/>
</g>
<g id="vector" filter="url(#filter1_bi_50_3364)">
<path fill-rule="evenodd" clip-rule="evenodd" d="M46.1478 2C32.6807 14.7703 16.2937 14.7703 16.2937 14.7703C17.0197 64.0803 46.1478 70 46.1478 70C46.1478 70 75.2759 64.0803 76.0001 14.7703C76.0001 14.7703 59.6166 14.7703 46.1478 2Z" fill="#C8D1FF" style="mix-blend-mode:multiply"/>
<path fill-rule="evenodd" clip-rule="evenodd" d="M46.1478 2C32.6807 14.7703 16.2937 14.7703 16.2937 14.7703C17.0197 64.0803 46.1478 70 46.1478 70C46.1478 70 75.2759 64.0803 76.0001 14.7703C76.0001 14.7703 59.6166 14.7703 46.1478 2Z" stroke="white" stroke-opacity="0.3" stroke-width="1.54953"/>
</g>
<g id="vector_2" filter="url(#filter2_d_50_3364)">
<path d="M44.7259 39.7841C44.7259 38.7373 45.5745 37.8887 46.6214 37.8887C47.6682 37.8887 48.5168 38.7373 48.5168 39.7841V45.4377C48.5168 46.4845 47.6682 47.3331 46.6214 47.3331C45.5745 47.3331 44.7259 46.4845 44.7259 45.4377V39.7841Z" fill="white"/>
<path d="M43.7783 31.2777C43.7783 29.7129 45.0567 28.4443 46.6215 28.4443C48.1863 28.4443 49.4646 29.7129 49.4646 31.2777C49.4646 32.8425 48.1863 34.111 46.6215 34.111C45.0567 34.111 43.7783 32.8425 43.7783 31.2777Z" fill="white"/>
</g>
</g>
<defs>
<filter id="filter0_i_50_3364" x="0" y="23.6826" width="43.4402" height="44.2722" filterUnits="userSpaceOnUse" color-interpolation-filters="sRGB">
<feFlood flood-opacity="0" result="BackgroundImageFix"/>
<feBlend mode="normal" in="SourceGraphic" in2="BackgroundImageFix" result="shape"/>
<feColorMatrix in="SourceAlpha" type="matrix" values="0 0 0 0 0 0 0 0 0 0 0 0 0 0 0 0 0 0 127 0" result="hardAlpha"/>
<feOffset dx="5" dy="5"/>
<feGaussianBlur stdDeviation="2.5"/>
<feComposite in2="hardAlpha" operator="arithmetic" k2="-1" k3="1"/>
<feColorMatrix type="matrix" values="0 0 0 0 0.784314 0 0 0 0 0.819608 0 0 0 0 1 0 0 0 0.45593 0"/>
<feBlend mode="normal" in2="shape" result="effect1_innerShadow_50_3364"/>
</filter>
<filter id="filter1_bi_50_3364" x="-26.6129" y="-41.1881" width="145.52" height="154.099" filterUnits="userSpaceOnUse" color-interpolation-filters="sRGB">
<feFlood flood-opacity="0" result="BackgroundImageFix"/>
<feGaussianBlur in="BackgroundImageFix" stdDeviation="21.0602"/>
<feComposite in2="SourceAlpha" operator="in" result="effect1_backgroundBlur_50_3364"/>
<feBlend mode="normal" in="SourceGraphic" in2="effect1_backgroundBlur_50_3364" result="shape"/>
<feColorMatrix in="SourceAlpha" type="matrix" values="0 0 0 0 0 0 0 0 0 0 0 0 0 0 0 0 0 0 127 0" result="hardAlpha"/>
<feOffset dy="-8"/>
<feGaussianBlur stdDeviation="4"/>
<feComposite in2="hardAlpha" operator="arithmetic" k2="-1" k3="1"/>
<feColorMatrix type="matrix" values="0 0 0 0 0.784314 0 0 0 0 0.819608 0 0 0 0 1 0 0 0 0.302557 0"/>
<feBlend mode="normal" in2="shape" result="effect2_innerShadow_50_3364"/>
</filter>
<filter id="filter2_d_50_3364" x="37.7783" y="24.4443" width="17.6863" height="30.8887" filterUnits="userSpaceOnUse" color-interpolation-filters="sRGB">
<feFlood flood-opacity="0" result="BackgroundImageFix"/>
<feColorMatrix in="SourceAlpha" type="matrix" values="0 0 0 0 0 0 0 0 0 0 0 0 0 0 0 0 0 0 127 0" result="hardAlpha"/>
<feOffset dy="2"/>
<feGaussianBlur stdDeviation="3"/>
<feColorMatrix type="matrix" values="0 0 0 0 0.784314 0 0 0 0 0.819608 0 0 0 0 1 0 0 0 0.534115 0"/>
<feBlend mode="normal" in2="BackgroundImageFix" result="effect1_dropShadow_50_3364"/>
<feBlend mode="normal" in="SourceGraphic" in2="effect1_dropShadow_50_3364" result="shape"/>
</filter>
<linearGradient id="paint0_linear_50_3364" x1="53.2503" y1="50.7743" x2="26.5174" y2="8.24359" gradientUnits="userSpaceOnUse">
<stop stop-color="#0D2285"/>
<stop offset="1" stop-color="#2B47CA"/>
</linearGradient>
</defs>
</svg>
