<?xml version="1.0" encoding="UTF-8" standalone="no"?>
<svg
   width="67.550255"
   height="70.190605"
   viewBox="0 0 67.550255 70.190605"
   fill="none"
   version="1.1"
   id="svg45"
   xmlns="http://www.w3.org/2000/svg"
   xmlns:svg="http://www.w3.org/2000/svg">
  <g
     id="icon"
     transform="translate(-4.9497475)">
    <g
       id="vector"
       filter="url(#filter0_i_50_3370)">
      <path
         fill-rule="evenodd"
         clip-rule="evenodd"
         d="m 46.9833,16.6913 -3.1474,-0.6221 c -0.3463,-1.1345 -0.8052,-2.2298 -1.3705,-3.2715 l 1.7801,-2.6391 C 44.58,9.66271 44.5139,9.00253 44.0875,8.58127 L 39.318,3.86708 C 38.8918,3.44574 38.2238,3.38041 37.7222,3.71083 L 35.0519,5.47028 C 33.9981,4.9116 32.8899,4.4581 31.742,4.11575 L 31.1126,1.00485 C 30.9945,0.420592 30.4754,0 29.8725,0 h -6.745 c -0.6029,0 -1.122,0.420592 -1.2402,1.00485 l -0.6294,3.1109 C 20.11,4.4581 19.0018,4.91169 17.948,5.47028 L 15.2777,3.71083 C 14.7762,3.38041 14.1082,3.44574 13.6819,3.86708 L 8.91241,8.58127 C 8.48604,9.00261 8.41993,9.66279 8.75441,10.1586 l 1.78009,2.6391 C 9.9692,13.8394 9.51036,14.9347 9.164,16.0692 L 6.01665,16.6913 C 5.42553,16.8081 5,17.3212 5,17.917 v 6.6669 c 0,0.5958 0.42553,1.1089 1.01674,1.2257 l 3.14735,0.6221 c 0.34627,1.1344 0.80519,2.2297 1.37051,3.2714 l -1.78011,2.6393 c -0.33447,0.4957 -0.26829,1.1559 0.158,1.5772 l 4.76951,4.7141 c 0.4263,0.4215 1.0942,0.4868 1.5958,0.1563 l 2.6155,-1.7234 v -7.8472 c -1.9807,-2.0838 -3.1972,-4.8835 -3.1972,-7.9689 0,-6.4435 5.2848,-11.66696 11.8039,-11.66696 6.5191,0 11.8039,5.22346 11.8039,11.66696 0,3.0854 -1.2165,5.8851 -3.1972,7.9689 v 7.8472 l 2.6155,1.7234 c 0.214,0.141 0.4583,0.21 0.7011,0.21 0.3264,0 0.6503,-0.1246 0.8947,-0.3662 l 4.7694,-4.7141 c 0.4263,-0.4213 0.4925,-1.0815 0.158,-1.5773 l -1.7801,-2.6392 c 0.5653,-1.0417 1.0242,-2.137 1.3705,-3.2714 l 3.1474,-0.6222 C 47.5745,25.6928 48,25.1797 48,24.5839 V 17.917 c 0,-0.5958 -0.4255,-1.1089 -1.0167,-1.2257 z"
         fill="url(#paint0_linear_50_3370)"
         id="path1"
         style="fill:url(#paint0_linear_50_3370)" />
    </g>
    <g
       id="vector_2"
       filter="url(#filter1_i_50_3370)">
      <path
         fill-rule="evenodd"
         clip-rule="evenodd"
         d="m 30.0016,15.1373 c -0.6357,-0.3592 -1.4423,0.0219 -1.5473,0.7312 l -0.7701,5.1988 h -3.3684 l -0.77,-5.1988 C 23.4407,15.1592 22.6342,14.7781 21.9985,15.1373 19.532,16.5309 18,19.118 18,21.8887 c 0,3.0026 1.7238,5.6886 4.4986,7.0097 l 0.133,0.0633 v 12.8061 c 0,0.6805 0.5655,1.2322 1.2631,1.2322 h 4.2106 c 0.6976,0 1.2631,-0.5517 1.2631,-1.2322 V 28.9617 l 0.133,-0.0633 C 32.2762,27.5773 34,24.8913 34,21.8887 34,19.118 32.468,16.5309 30.0016,15.1373 Z"
         fill="url(#paint1_linear_50_3370)"
         id="path2"
         style="fill:url(#paint1_linear_50_3370)" />
    </g>
    <g
       id="vector_3"
       filter="url(#filter2_bi_50_3370)">
      <path
         fill-rule="evenodd"
         clip-rule="evenodd"
         d="M 38.6497,12.2616 65.9352,8.05542 C 67.2014,7.85392 68.4924,8.20654 69.4607,9.0377 70.429,9.89405 71,11.1282 71,12.4127 V 65.4813 C 71,66.8666 69.8828,68 68.5172,68 H 60.4483 V 54.7769 c 0,-2.4431 -1.9366,-4.4077 -4.3449,-4.4077 h -6.2068 c -2.4083,0 -4.3449,1.9646 -4.3449,4.4077 V 68 H 35 V 16.6189 c 0,-2.166 1.5393,-4.0047 3.6497,-4.3573 z"
         fill="#c8d1ff"
         style="mix-blend-mode:multiply"
         id="path3" />
      <path
         fill-rule="evenodd"
         clip-rule="evenodd"
         d="M 38.6497,12.2616 65.9352,8.05542 C 67.2014,7.85392 68.4924,8.20654 69.4607,9.0377 70.429,9.89405 71,11.1282 71,12.4127 V 65.4813 C 71,66.8666 69.8828,68 68.5172,68 H 60.4483 V 54.7769 c 0,-2.4431 -1.9366,-4.4077 -4.3449,-4.4077 h -6.2068 c -2.4083,0 -4.3449,1.9646 -4.3449,4.4077 V 68 H 35 V 16.6189 c 0,-2.166 1.5393,-4.0047 3.6497,-4.3573 z"
         stroke="#ffffff"
         stroke-opacity="0.3"
         stroke-width="1.54953"
         id="path4" />
    </g>
    <g
       id="vector_4"
       filter="url(#filter3_d_50_3370)">
      <path
         fill-rule="evenodd"
         clip-rule="evenodd"
         d="m 44.9314,40.7018 h 3.7241 c 1.0279,0 1.8621,-0.8462 1.8621,-1.889 0,-1.0427 -0.8342,-1.889 -1.8621,-1.889 h -3.7241 c -1.0279,0 -1.8621,0.8463 -1.8621,1.889 0,1.0428 0.8342,1.889 1.8621,1.889 z"
         fill="#ffffff"
         id="path5" />
    </g>
    <g
       id="vector_5"
       filter="url(#filter4_d_50_3370)">
      <path
         fill-rule="evenodd"
         clip-rule="evenodd"
         d="m 44.9314,32.5905 h 3.7241 c 1.0279,0 1.8621,-0.8463 1.8621,-1.889 0,-1.0427 -0.8342,-1.889 -1.8621,-1.889 h -3.7241 c -1.0279,0 -1.8621,0.8463 -1.8621,1.889 0,1.0427 0.8342,1.889 1.8621,1.889 z"
         fill="#ffffff"
         id="path6" />
    </g>
    <g
       id="vector_6"
       filter="url(#filter5_d_50_3370)">
      <path
         fill-rule="evenodd"
         clip-rule="evenodd"
         d="m 44.9314,24.0339 h 3.7241 c 1.0279,0 1.8621,-0.8463 1.8621,-1.889 0,-1.0428 -0.8342,-1.889 -1.8621,-1.889 h -3.7241 c -1.0279,0 -1.8621,0.8462 -1.8621,1.889 0,1.0427 0.8342,1.889 1.8621,1.889 z"
         fill="#ffffff"
         id="path7" />
    </g>
    <g
       id="vector_7"
       filter="url(#filter6_d_50_3370)">
      <path
         fill-rule="evenodd"
         clip-rule="evenodd"
         d="m 57.3445,40.7018 h 3.7241 c 1.0279,0 1.8621,-0.8462 1.8621,-1.889 0,-1.0427 -0.8342,-1.889 -1.8621,-1.889 h -3.7241 c -1.0279,0 -1.8621,0.8463 -1.8621,1.889 0,1.0428 0.8342,1.889 1.8621,1.889 z"
         fill="#ffffff"
         id="path8" />
    </g>
    <g
       id="vector_8"
       filter="url(#filter7_d_50_3370)">
      <path
         fill-rule="evenodd"
         clip-rule="evenodd"
         d="m 57.3445,32.5905 h 3.7241 c 1.0279,0 1.8621,-0.8463 1.8621,-1.889 0,-1.0427 -0.8342,-1.889 -1.8621,-1.889 h -3.7241 c -1.0279,0 -1.8621,0.8463 -1.8621,1.889 0,1.0427 0.8342,1.889 1.8621,1.889 z"
         fill="#ffffff"
         id="path9" />
    </g>
    <g
       id="vector_9"
       filter="url(#filter8_d_50_3370)">
      <path
         fill-rule="evenodd"
         clip-rule="evenodd"
         d="m 57.3445,24.0339 h 3.7241 c 1.0279,0 1.8621,-0.8463 1.8621,-1.889 0,-1.0428 -0.8342,-1.889 -1.8621,-1.889 h -3.7241 c -1.0279,0 -1.8621,0.8462 -1.8621,1.889 0,1.0427 0.8342,1.889 1.8621,1.889 z"
         fill="#ffffff"
         id="path10" />
    </g>
    <g
       id="vector_10"
       filter="url(#filter9_bi_50_3370)">
      <path
         fill-rule="evenodd"
         clip-rule="evenodd"
         d="M 14.5718,34.7659 33,31 V 68 H 15.5294 C 13.0318,68 11,66.0173 11,63.5799 V 39.085 c 0,-2.0863 1.4572,-3.8619 3.5718,-4.3191 z"
         fill="#c8d1ff"
         style="mix-blend-mode:multiply"
         id="path11" />
      <path
         fill-rule="evenodd"
         clip-rule="evenodd"
         d="M 14.5718,34.7659 33,31 V 68 H 15.5294 C 13.0318,68 11,66.0173 11,63.5799 V 39.085 c 0,-2.0863 1.4572,-3.8619 3.5718,-4.3191 z"
         stroke="#ffffff"
         stroke-opacity="0.3"
         stroke-width="1.54953"
         id="path12" />
    </g>
    <g
       id="vector_11"
       filter="url(#filter10_d_50_3370)">
      <path
         fill-rule="evenodd"
         clip-rule="evenodd"
         d="m 20.7058,60.4224 h 3.8823 c 1.0715,0 1.9412,-0.8486 1.9412,-1.8943 0,-1.0457 -0.8697,-1.8943 -1.9412,-1.8943 h -3.8823 c -1.0716,0 -1.9412,0.8486 -1.9412,1.8943 0,1.0457 0.8696,1.8943 1.9412,1.8943 z"
         fill="#ffffff"
         id="path13" />
    </g>
    <g
       id="vector_12"
       filter="url(#filter11_d_50_3370)">
      <path
         fill-rule="evenodd"
         clip-rule="evenodd"
         d="m 20.7058,52.8453 h 3.8823 c 1.0715,0 1.9412,-0.8487 1.9412,-1.8943 0,-1.0457 -0.8697,-1.8944 -1.9412,-1.8944 h -3.8823 c -1.0716,0 -1.9412,0.8487 -1.9412,1.8944 0,1.0456 0.8696,1.8943 1.9412,1.8943 z"
         fill="#ffffff"
         id="path14" />
    </g>
    <g
       id="vector_13"
       filter="url(#filter12_d_50_3370)">
      <path
         fill-rule="evenodd"
         clip-rule="evenodd"
         d="m 20.7058,45.2681 h 3.8823 c 1.0715,0 1.9412,-0.8486 1.9412,-1.8943 0,-1.0456 -0.8697,-1.8943 -1.9412,-1.8943 h -3.8823 c -1.0716,0 -1.9412,0.8487 -1.9412,1.8943 0,1.0457 0.8696,1.8943 1.9412,1.8943 z"
         fill="#ffffff"
         id="path15" />
    </g>
  </g>
  <defs
     id="defs45">
    <filter
       id="filter0_i_50_3370"
       x="5"
       y="0"
       width="48"
       height="44"
       filterUnits="userSpaceOnUse"
       color-interpolation-filters="sRGB">
      <feFlood
         flood-opacity="0"
         result="BackgroundImageFix"
         id="feFlood15" />
      <feBlend
         mode="normal"
         in="SourceGraphic"
         in2="BackgroundImageFix"
         result="shape"
         id="feBlend15" />
      <feColorMatrix
         in="SourceAlpha"
         type="matrix"
         values="0 0 0 0 0 0 0 0 0 0 0 0 0 0 0 0 0 0 127 0"
         result="hardAlpha"
         id="feColorMatrix15" />
      <feOffset
         dx="5"
         dy="5"
         id="feOffset15" />
      <feGaussianBlur
         stdDeviation="2.5"
         id="feGaussianBlur15" />
      <feComposite
         in2="hardAlpha"
         operator="arithmetic"
         k2="-1"
         k3="1"
         id="feComposite15"
         k1="0"
         k4="0" />
      <feColorMatrix
         type="matrix"
         values="0 0 0 0 0.784314 0 0 0 0 0.819608 0 0 0 0 1 0 0 0 0.45593 0"
         id="feColorMatrix16" />
      <feBlend
         mode="normal"
         in2="shape"
         result="effect1_innerShadow_50_3370"
         id="feBlend16" />
    </filter>
    <filter
       id="filter1_i_50_3370"
       x="18"
       y="15"
       width="21"
       height="33"
       filterUnits="userSpaceOnUse"
       color-interpolation-filters="sRGB">
      <feFlood
         flood-opacity="0"
         result="BackgroundImageFix"
         id="feFlood16" />
      <feBlend
         mode="normal"
         in="SourceGraphic"
         in2="BackgroundImageFix"
         result="shape"
         id="feBlend17" />
      <feColorMatrix
         in="SourceAlpha"
         type="matrix"
         values="0 0 0 0 0 0 0 0 0 0 0 0 0 0 0 0 0 0 127 0"
         result="hardAlpha"
         id="feColorMatrix17" />
      <feOffset
         dx="5"
         dy="5"
         id="feOffset17" />
      <feGaussianBlur
         stdDeviation="2.5"
         id="feGaussianBlur17" />
      <feComposite
         in2="hardAlpha"
         operator="arithmetic"
         k2="-1"
         k3="1"
         id="feComposite17"
         k1="0"
         k4="0" />
      <feColorMatrix
         type="matrix"
         values="0 0 0 0 0.784314 0 0 0 0 0.819608 0 0 0 0 1 0 0 0 0.45593 0"
         id="feColorMatrix18" />
      <feBlend
         mode="normal"
         in2="shape"
         result="effect1_innerShadow_50_3370"
         id="feBlend18" />
    </filter>
    <filter
       id="filter2_bi_50_3370"
       x="-7.8951402"
       y="-34.8951"
       width="121.79"
       height="145.78999"
       filterUnits="userSpaceOnUse"
       color-interpolation-filters="sRGB">
      <feFlood
         flood-opacity="0"
         result="BackgroundImageFix"
         id="feFlood18" />
      <feGaussianBlur
         in="BackgroundImageFix"
         stdDeviation="21.0602"
         id="feGaussianBlur18" />
      <feComposite
         in2="SourceAlpha"
         operator="in"
         result="effect1_backgroundBlur_50_3370"
         id="feComposite18" />
      <feBlend
         mode="normal"
         in="SourceGraphic"
         in2="effect1_backgroundBlur_50_3370"
         result="shape"
         id="feBlend19" />
      <feColorMatrix
         in="SourceAlpha"
         type="matrix"
         values="0 0 0 0 0 0 0 0 0 0 0 0 0 0 0 0 0 0 127 0"
         result="hardAlpha"
         id="feColorMatrix19" />
      <feOffset
         dy="-8"
         id="feOffset19" />
      <feGaussianBlur
         stdDeviation="4"
         id="feGaussianBlur19" />
      <feComposite
         in2="hardAlpha"
         operator="arithmetic"
         k2="-1"
         k3="1"
         id="feComposite19"
         k1="0"
         k4="0" />
      <feColorMatrix
         type="matrix"
         values="0 0 0 0 0.784314 0 0 0 0 0.819608 0 0 0 0 1 0 0 0 0.302557 0"
         id="feColorMatrix20" />
      <feBlend
         mode="normal"
         in2="shape"
         result="effect2_innerShadow_50_3370"
         id="feBlend20" />
    </filter>
    <filter
       id="filter3_d_50_3370"
       x="25.0693"
       y="26.9238"
       width="51.4482"
       height="47.778099"
       filterUnits="userSpaceOnUse"
       color-interpolation-filters="sRGB">
      <feFlood
         flood-opacity="0"
         result="BackgroundImageFix"
         id="feFlood20" />
      <feColorMatrix
         in="SourceAlpha"
         type="matrix"
         values="0 0 0 0 0 0 0 0 0 0 0 0 0 0 0 0 0 0 127 0"
         result="hardAlpha"
         id="feColorMatrix21" />
      <feOffset
         dx="4"
         dy="12"
         id="feOffset21" />
      <feGaussianBlur
         stdDeviation="11"
         id="feGaussianBlur21" />
      <feColorMatrix
         type="matrix"
         values="0 0 0 0 0.54902 0 0 0 0 0.258824 0 0 0 0 0.760784 0 0 0 0.331545 0"
         id="feColorMatrix22" />
      <feBlend
         mode="normal"
         in2="BackgroundImageFix"
         result="effect1_dropShadow_50_3370"
         id="feBlend22" />
      <feBlend
         mode="normal"
         in="SourceGraphic"
         in2="effect1_dropShadow_50_3370"
         result="shape"
         id="feBlend23" />
    </filter>
    <filter
       id="filter4_d_50_3370"
       x="25.0693"
       y="18.8125"
       width="51.4482"
       height="47.778099"
       filterUnits="userSpaceOnUse"
       color-interpolation-filters="sRGB">
      <feFlood
         flood-opacity="0"
         result="BackgroundImageFix"
         id="feFlood23" />
      <feColorMatrix
         in="SourceAlpha"
         type="matrix"
         values="0 0 0 0 0 0 0 0 0 0 0 0 0 0 0 0 0 0 127 0"
         result="hardAlpha"
         id="feColorMatrix23" />
      <feOffset
         dx="4"
         dy="12"
         id="feOffset23" />
      <feGaussianBlur
         stdDeviation="11"
         id="feGaussianBlur23" />
      <feColorMatrix
         type="matrix"
         values="0 0 0 0 0.54902 0 0 0 0 0.258824 0 0 0 0 0.760784 0 0 0 0.331545 0"
         id="feColorMatrix24" />
      <feBlend
         mode="normal"
         in2="BackgroundImageFix"
         result="effect1_dropShadow_50_3370"
         id="feBlend24" />
      <feBlend
         mode="normal"
         in="SourceGraphic"
         in2="effect1_dropShadow_50_3370"
         result="shape"
         id="feBlend25" />
    </filter>
    <filter
       id="filter5_d_50_3370"
       x="25.0693"
       y="10.2559"
       width="51.4482"
       height="47.778099"
       filterUnits="userSpaceOnUse"
       color-interpolation-filters="sRGB">
      <feFlood
         flood-opacity="0"
         result="BackgroundImageFix"
         id="feFlood25" />
      <feColorMatrix
         in="SourceAlpha"
         type="matrix"
         values="0 0 0 0 0 0 0 0 0 0 0 0 0 0 0 0 0 0 127 0"
         result="hardAlpha"
         id="feColorMatrix25" />
      <feOffset
         dx="4"
         dy="12"
         id="feOffset25" />
      <feGaussianBlur
         stdDeviation="11"
         id="feGaussianBlur25" />
      <feColorMatrix
         type="matrix"
         values="0 0 0 0 0.54902 0 0 0 0 0.258824 0 0 0 0 0.760784 0 0 0 0.331545 0"
         id="feColorMatrix26" />
      <feBlend
         mode="normal"
         in2="BackgroundImageFix"
         result="effect1_dropShadow_50_3370"
         id="feBlend26" />
      <feBlend
         mode="normal"
         in="SourceGraphic"
         in2="effect1_dropShadow_50_3370"
         result="shape"
         id="feBlend27" />
    </filter>
    <filter
       id="filter6_d_50_3370"
       x="37.482399"
       y="26.9238"
       width="51.4482"
       height="47.778099"
       filterUnits="userSpaceOnUse"
       color-interpolation-filters="sRGB">
      <feFlood
         flood-opacity="0"
         result="BackgroundImageFix"
         id="feFlood27" />
      <feColorMatrix
         in="SourceAlpha"
         type="matrix"
         values="0 0 0 0 0 0 0 0 0 0 0 0 0 0 0 0 0 0 127 0"
         result="hardAlpha"
         id="feColorMatrix27" />
      <feOffset
         dx="4"
         dy="12"
         id="feOffset27" />
      <feGaussianBlur
         stdDeviation="11"
         id="feGaussianBlur27" />
      <feColorMatrix
         type="matrix"
         values="0 0 0 0 0.54902 0 0 0 0 0.258824 0 0 0 0 0.760784 0 0 0 0.331545 0"
         id="feColorMatrix28" />
      <feBlend
         mode="normal"
         in2="BackgroundImageFix"
         result="effect1_dropShadow_50_3370"
         id="feBlend28" />
      <feBlend
         mode="normal"
         in="SourceGraphic"
         in2="effect1_dropShadow_50_3370"
         result="shape"
         id="feBlend29" />
    </filter>
    <filter
       id="filter7_d_50_3370"
       x="37.482399"
       y="18.8125"
       width="51.4482"
       height="47.778099"
       filterUnits="userSpaceOnUse"
       color-interpolation-filters="sRGB">
      <feFlood
         flood-opacity="0"
         result="BackgroundImageFix"
         id="feFlood29" />
      <feColorMatrix
         in="SourceAlpha"
         type="matrix"
         values="0 0 0 0 0 0 0 0 0 0 0 0 0 0 0 0 0 0 127 0"
         result="hardAlpha"
         id="feColorMatrix29" />
      <feOffset
         dx="4"
         dy="12"
         id="feOffset29" />
      <feGaussianBlur
         stdDeviation="11"
         id="feGaussianBlur29" />
      <feColorMatrix
         type="matrix"
         values="0 0 0 0 0.54902 0 0 0 0 0.258824 0 0 0 0 0.760784 0 0 0 0.331545 0"
         id="feColorMatrix30" />
      <feBlend
         mode="normal"
         in2="BackgroundImageFix"
         result="effect1_dropShadow_50_3370"
         id="feBlend30" />
      <feBlend
         mode="normal"
         in="SourceGraphic"
         in2="effect1_dropShadow_50_3370"
         result="shape"
         id="feBlend31" />
    </filter>
    <filter
       id="filter8_d_50_3370"
       x="37.482399"
       y="10.2559"
       width="51.4482"
       height="47.778099"
       filterUnits="userSpaceOnUse"
       color-interpolation-filters="sRGB">
      <feFlood
         flood-opacity="0"
         result="BackgroundImageFix"
         id="feFlood31" />
      <feColorMatrix
         in="SourceAlpha"
         type="matrix"
         values="0 0 0 0 0 0 0 0 0 0 0 0 0 0 0 0 0 0 127 0"
         result="hardAlpha"
         id="feColorMatrix31" />
      <feOffset
         dx="4"
         dy="12"
         id="feOffset31" />
      <feGaussianBlur
         stdDeviation="11"
         id="feGaussianBlur31" />
      <feColorMatrix
         type="matrix"
         values="0 0 0 0 0.54902 0 0 0 0 0.258824 0 0 0 0 0.760784 0 0 0 0.331545 0"
         id="feColorMatrix32" />
      <feBlend
         mode="normal"
         in2="BackgroundImageFix"
         result="effect1_dropShadow_50_3370"
         id="feBlend32" />
      <feBlend
         mode="normal"
         in="SourceGraphic"
         in2="effect1_dropShadow_50_3370"
         result="shape"
         id="feBlend33" />
    </filter>
    <filter
       id="filter9_bi_50_3370"
       x="-31.8951"
       y="-12.0697"
       width="107.79"
       height="122.965"
       filterUnits="userSpaceOnUse"
       color-interpolation-filters="sRGB">
      <feFlood
         flood-opacity="0"
         result="BackgroundImageFix"
         id="feFlood33" />
      <feGaussianBlur
         in="BackgroundImageFix"
         stdDeviation="21.0602"
         id="feGaussianBlur33" />
      <feComposite
         in2="SourceAlpha"
         operator="in"
         result="effect1_backgroundBlur_50_3370"
         id="feComposite33" />
      <feBlend
         mode="normal"
         in="SourceGraphic"
         in2="effect1_backgroundBlur_50_3370"
         result="shape"
         id="feBlend34" />
      <feColorMatrix
         in="SourceAlpha"
         type="matrix"
         values="0 0 0 0 0 0 0 0 0 0 0 0 0 0 0 0 0 0 127 0"
         result="hardAlpha"
         id="feColorMatrix34" />
      <feOffset
         dy="-8"
         id="feOffset34" />
      <feGaussianBlur
         stdDeviation="4"
         id="feGaussianBlur34" />
      <feComposite
         in2="hardAlpha"
         operator="arithmetic"
         k2="-1"
         k3="1"
         id="feComposite34"
         k1="0"
         k4="0" />
      <feColorMatrix
         type="matrix"
         values="0 0 0 0 0.784314 0 0 0 0 0.819608 0 0 0 0 1 0 0 0 0.302557 0"
         id="feColorMatrix35" />
      <feBlend
         mode="normal"
         in2="shape"
         result="effect2_innerShadow_50_3370"
         id="feBlend35" />
    </filter>
    <filter
       id="filter10_d_50_3370"
       x="0.76464802"
       y="46.633801"
       width="51.764599"
       height="47.788601"
       filterUnits="userSpaceOnUse"
       color-interpolation-filters="sRGB">
      <feFlood
         flood-opacity="0"
         result="BackgroundImageFix"
         id="feFlood35" />
      <feColorMatrix
         in="SourceAlpha"
         type="matrix"
         values="0 0 0 0 0 0 0 0 0 0 0 0 0 0 0 0 0 0 127 0"
         result="hardAlpha"
         id="feColorMatrix36" />
      <feOffset
         dx="4"
         dy="12"
         id="feOffset36" />
      <feGaussianBlur
         stdDeviation="11"
         id="feGaussianBlur36" />
      <feColorMatrix
         type="matrix"
         values="0 0 0 0 0.54902 0 0 0 0 0.258824 0 0 0 0 0.760784 0 0 0 0.331545 0"
         id="feColorMatrix37" />
      <feBlend
         mode="normal"
         in2="BackgroundImageFix"
         result="effect1_dropShadow_50_3370"
         id="feBlend37" />
      <feBlend
         mode="normal"
         in="SourceGraphic"
         in2="effect1_dropShadow_50_3370"
         result="shape"
         id="feBlend38" />
    </filter>
    <filter
       id="filter11_d_50_3370"
       x="0.76464802"
       y="39.056599"
       width="51.764599"
       height="47.788601"
       filterUnits="userSpaceOnUse"
       color-interpolation-filters="sRGB">
      <feFlood
         flood-opacity="0"
         result="BackgroundImageFix"
         id="feFlood38" />
      <feColorMatrix
         in="SourceAlpha"
         type="matrix"
         values="0 0 0 0 0 0 0 0 0 0 0 0 0 0 0 0 0 0 127 0"
         result="hardAlpha"
         id="feColorMatrix38" />
      <feOffset
         dx="4"
         dy="12"
         id="feOffset38" />
      <feGaussianBlur
         stdDeviation="11"
         id="feGaussianBlur38" />
      <feColorMatrix
         type="matrix"
         values="0 0 0 0 0.54902 0 0 0 0 0.258824 0 0 0 0 0.760784 0 0 0 0.331545 0"
         id="feColorMatrix39" />
      <feBlend
         mode="normal"
         in2="BackgroundImageFix"
         result="effect1_dropShadow_50_3370"
         id="feBlend39" />
      <feBlend
         mode="normal"
         in="SourceGraphic"
         in2="effect1_dropShadow_50_3370"
         result="shape"
         id="feBlend40" />
    </filter>
    <filter
       id="filter12_d_50_3370"
       x="0.76464802"
       y="31.4795"
       width="51.764599"
       height="47.788601"
       filterUnits="userSpaceOnUse"
       color-interpolation-filters="sRGB">
      <feFlood
         flood-opacity="0"
         result="BackgroundImageFix"
         id="feFlood40" />
      <feColorMatrix
         in="SourceAlpha"
         type="matrix"
         values="0 0 0 0 0 0 0 0 0 0 0 0 0 0 0 0 0 0 127 0"
         result="hardAlpha"
         id="feColorMatrix40" />
      <feOffset
         dx="4"
         dy="12"
         id="feOffset40" />
      <feGaussianBlur
         stdDeviation="11"
         id="feGaussianBlur40" />
      <feColorMatrix
         type="matrix"
         values="0 0 0 0 0.54902 0 0 0 0 0.258824 0 0 0 0 0.760784 0 0 0 0.331545 0"
         id="feColorMatrix41" />
      <feBlend
         mode="normal"
         in2="BackgroundImageFix"
         result="effect1_dropShadow_50_3370"
         id="feBlend41" />
      <feBlend
         mode="normal"
         in="SourceGraphic"
         in2="effect1_dropShadow_50_3370"
         result="shape"
         id="feBlend42" />
    </filter>
    <linearGradient
       id="paint0_linear_50_3370"
       x1="64.567001"
       y1="26.903999"
       x2="39.494499"
       y2="-18.028099"
       gradientUnits="userSpaceOnUse">
      <stop
         stop-color="#0D2285"
         id="stop42" />
      <stop
         offset="1"
         stop-color="#2B47CA"
         id="stop43" />
    </linearGradient>
    <linearGradient
       id="paint1_linear_50_3370"
       x1="40.164398"
       y1="34.315701"
       x2="19.070299"
       y2="14.7236"
       gradientUnits="userSpaceOnUse">
      <stop
         stop-color="#0D2285"
         id="stop44" />
      <stop
         offset="1"
         stop-color="#2B47CA"
         id="stop45" />
    </linearGradient>
  </defs>
</svg>
