<svg width="94" height="69" viewBox="0 0 94 69" fill="none" xmlns="http://www.w3.org/2000/svg">
<g id="icon">
<g id="vector" filter="url(#filter0_i_50_3386)">
<path fill-rule="evenodd" clip-rule="evenodd" d="M43.2708 30.4121C40.9191 30.4121 38.9323 31.9667 38.3195 34.0823H33.3502V28.7096H38.424C43.9349 28.7096 48.4182 24.3141 48.4182 18.9113C48.4182 14.5795 45.4877 10.774 41.3274 9.53461C40.0699 4.59782 35.5244 1.05708 30.26 1.05708C28.2193 1.05708 26.2644 1.57302 24.5391 2.55874C22.712 0.920548 20.3161 0.000244141 17.7989 0.000244141C12.3993 0.000244141 7.98619 4.22015 7.81006 9.47239C3.53663 10.6435 0.5 14.4795 0.5 18.9113C0.5 24.3141 4.98335 28.7096 10.4942 28.7096H15.568V34.0823H10.5988C9.98603 31.9667 7.99911 30.4121 5.64746 30.4121C2.80915 30.4121 0.5 32.676 0.5 35.4586C0.5 38.2413 2.80915 40.5051 5.64746 40.5051C7.99911 40.5051 9.98594 38.9505 10.5988 36.8349H16.9719C17.7472 36.8349 18.3757 36.2187 18.3757 35.4586V28.7096H23.0553V37.0273C20.8973 37.628 19.3116 39.5759 19.3116 41.8815C19.3116 44.6641 21.6208 46.928 24.4591 46.928C27.2974 46.928 29.6066 44.6641 29.6066 41.8815C29.6066 39.5759 28.0209 37.6281 25.863 37.0273V28.7096H30.5425V35.4586C30.5425 36.2187 31.171 36.8349 31.9463 36.8349H38.3195C38.9322 38.9505 40.9191 40.5051 43.2708 40.5051C46.1091 40.5051 48.4182 38.2413 48.4182 35.4586C48.4182 32.676 46.1091 30.4121 43.2708 30.4121Z" fill="url(#paint0_linear_50_3386)"/>
</g>
<g id="vector_2" filter="url(#filter1_bi_50_3386)">
<rect x="25.6865" y="12.2729" width="66.8135" height="55.7267" rx="9" fill="#C8D1FF" style="mix-blend-mode:multiply"/>
<rect x="25.6865" y="12.2729" width="66.8135" height="55.7267" rx="9" stroke="white" stroke-opacity="0.3" stroke-width="1.54953"/>
</g>
<g id="vector_3" filter="url(#filter2_d_50_3386)">
<path fill-rule="evenodd" clip-rule="evenodd" d="M83.5251 23.5165C83.5251 25.407 81.9628 26.9384 80.035 26.9384C78.1071 26.9384 76.5446 25.407 76.5446 23.5165C76.5446 21.627 78.1071 20.0947 80.035 20.0947C81.9628 20.0947 83.5251 21.627 83.5251 23.5165Z" fill="white"/>
<path fill-rule="evenodd" clip-rule="evenodd" d="M69.0656 20.0947C70.9935 20.0947 72.5557 21.627 72.5557 23.5165C72.5557 25.407 70.9935 26.9384 69.0656 26.9384C67.1377 26.9384 65.5752 25.407 65.5752 23.5165C65.5752 21.627 67.1377 20.0947 69.0656 20.0947Z" fill="white"/>
</g>
<g id="vector_4">
<path fill-rule="evenodd" clip-rule="evenodd" d="M40.5064 51.4776H46.6772L47.5587 55.2905H51.1367L46.8068 37.4971H40.3768L36.0469 55.2905H39.6249L40.5064 51.4776ZM45.9253 48.2748H41.2324L43.3585 39.1747H43.8252L45.9253 48.2748Z" fill="white"/>
<path fill-rule="evenodd" clip-rule="evenodd" d="M56.8154 55.2905V48.5798H60.4971C61.4305 48.5798 62.2429 48.4273 62.9343 48.1223C63.6257 47.8173 64.2005 47.4148 64.6585 46.9149C65.1166 46.415 65.4623 45.8473 65.6956 45.2118C65.929 44.5763 66.0457 43.9281 66.0457 43.2672V42.6572C66.0457 42.0132 65.929 41.382 65.6956 40.7634C65.4623 40.1449 65.1166 39.5942 64.6585 39.1112C64.2005 38.6282 63.6257 38.2385 62.9343 37.9419C62.2429 37.6453 61.4305 37.4971 60.4971 37.4971H53.393V55.2905H56.8154ZM60.1597 45.3774H56.8151V40.7002H60.1597C60.9203 40.7002 61.5209 40.9036 61.9617 41.3103C62.4025 41.717 62.6229 42.2423 62.6229 42.8863V43.1913C62.6229 43.8353 62.4025 44.3606 61.9617 44.7673C61.5209 45.174 60.9203 45.3774 60.1597 45.3774Z" fill="white"/>
<path d="M69.2608 37.4971H81.3949V40.6999H77.0391V52.0877H81.3949V55.2905H69.2608V52.0877H73.6166V40.6999H69.2608V37.4971Z" fill="white"/>
</g>
</g>
<defs>
<filter id="filter0_i_50_3386" x="0.5" y="0.000244141" width="52.9182" height="51.9277" filterUnits="userSpaceOnUse" color-interpolation-filters="sRGB">
<feFlood flood-opacity="0" result="BackgroundImageFix"/>
<feBlend mode="normal" in="SourceGraphic" in2="BackgroundImageFix" result="shape"/>
<feColorMatrix in="SourceAlpha" type="matrix" values="0 0 0 0 0 0 0 0 0 0 0 0 0 0 0 0 0 0 127 0" result="hardAlpha"/>
<feOffset dx="5" dy="5"/>
<feGaussianBlur stdDeviation="2.5"/>
<feComposite in2="hardAlpha" operator="arithmetic" k2="-1" k3="1"/>
<feColorMatrix type="matrix" values="0 0 0 0 0.784314 0 0 0 0 0.819608 0 0 0 0 1 0 0 0 0.45593 0"/>
<feBlend mode="normal" in2="shape" result="effect1_innerShadow_50_3386"/>
</filter>
<filter id="filter1_bi_50_3386" x="-17.2086" y="-30.6222" width="152.604" height="141.517" filterUnits="userSpaceOnUse" color-interpolation-filters="sRGB">
<feFlood flood-opacity="0" result="BackgroundImageFix"/>
<feGaussianBlur in="BackgroundImageFix" stdDeviation="21.0602"/>
<feComposite in2="SourceAlpha" operator="in" result="effect1_backgroundBlur_50_3386"/>
<feBlend mode="normal" in="SourceGraphic" in2="effect1_backgroundBlur_50_3386" result="shape"/>
<feColorMatrix in="SourceAlpha" type="matrix" values="0 0 0 0 0 0 0 0 0 0 0 0 0 0 0 0 0 0 127 0" result="hardAlpha"/>
<feMorphology radius="0.774763" operator="erode" in="SourceAlpha" result="effect2_innerShadow_50_3386"/>
<feOffset dy="-8"/>
<feGaussianBlur stdDeviation="4"/>
<feComposite in2="hardAlpha" operator="arithmetic" k2="-1" k3="1"/>
<feColorMatrix type="matrix" values="0 0 0 0 0.784314 0 0 0 0 0.819608 0 0 0 0 1 0 0 0 0.302557 0"/>
<feBlend mode="normal" in2="shape" result="effect2_innerShadow_50_3386"/>
</filter>
<filter id="filter2_d_50_3386" x="59.5752" y="16.0947" width="29.95" height="18.8438" filterUnits="userSpaceOnUse" color-interpolation-filters="sRGB">
<feFlood flood-opacity="0" result="BackgroundImageFix"/>
<feColorMatrix in="SourceAlpha" type="matrix" values="0 0 0 0 0 0 0 0 0 0 0 0 0 0 0 0 0 0 127 0" result="hardAlpha"/>
<feOffset dy="2"/>
<feGaussianBlur stdDeviation="3"/>
<feColorMatrix type="matrix" values="0 0 0 0 0.784314 0 0 0 0 0.819608 0 0 0 0 1 0 0 0 1 0"/>
<feBlend mode="normal" in2="BackgroundImageFix" result="effect1_dropShadow_50_3386"/>
<feBlend mode="normal" in="SourceGraphic" in2="effect1_dropShadow_50_3386" result="shape"/>
</filter>
<linearGradient id="paint0_linear_50_3386" x1="66.8801" y1="32.3732" x2="35.5389" y2="-19.6434" gradientUnits="userSpaceOnUse">
<stop stop-color="#0D2285"/>
<stop offset="1" stop-color="#2B47CA"/>
</linearGradient>
</defs>
</svg>
