<svg width="82" height="42" viewBox="0 0 82 42" fill="none" xmlns="http://www.w3.org/2000/svg">
<g id="icon">
<g id="vector" filter="url(#filter0_i_50_2756)">
<path fill-rule="evenodd" clip-rule="evenodd" d="M57.0152 23.588C57.0152 22.289 55.9449 21.2362 54.6259 21.2362C53.3097 21.2362 52.238 22.289 52.238 23.588C52.238 24.887 53.3097 25.9398 54.6259 25.9398C55.9449 25.9398 57.0152 24.887 57.0152 23.588ZM65.9331 23.588C65.9331 22.289 64.8641 21.2362 63.5451 21.2362C62.2262 21.2362 61.1572 22.289 61.1572 23.588C61.1572 24.887 62.2262 25.9398 63.5451 25.9398C64.8641 25.9398 65.9331 24.887 65.9331 23.588ZM74.853 23.588C74.853 22.289 73.7841 21.2362 72.4651 21.2362C71.1476 21.2362 70.0772 22.289 70.0772 23.588C70.0772 24.887 71.1476 25.9398 72.4651 25.9398C73.7841 25.9398 74.853 24.887 74.853 23.588ZM76.4977 12.6206C78.8234 12.6206 81.5 14.6555 81.5 16.6169V32.3954C81.5 34.2017 79.2322 35.5062 77.057 35.7075L78.4726 41.0001L69.4016 35.7442H50.0634C47.7377 35.7442 45.5914 34.3554 45.5914 32.3954V19.6298V16.6169C45.5914 14.6555 47.7391 12.6206 50.0634 12.6206H76.4977Z" fill="url(#paint0_linear_50_2756)"/>
</g>
<ellipse id="vector_2" cx="14.0463" cy="30.098" rx="10.1181" ry="9.96508" fill="#0D2285"/>
<g id="vector_3" opacity="0.987096" filter="url(#filter1_bi_50_2756)">
<path fill-rule="evenodd" clip-rule="evenodd" d="M30.8506 20.4463C29.4544 21.3631 27.0051 21.363 25.6092 20.4464L25.6085 20.446L1.81567 4.82419C2.59615 2.60133 4.74111 1 7.26018 1H49.1994C51.7182 1 53.8633 2.60133 54.6437 4.82419L30.8514 20.4459L30.8506 20.4463ZM32.588 23.0133L32.5888 23.0128L54.9595 8.32448V34.7604C54.9595 37.8883 52.3756 40.4331 49.1995 40.4331H7.26005C4.08391 40.4331 1.5 37.8883 1.5 34.7604V8.32448L23.871 23.0129L23.8715 23.0132C25.0935 23.8156 26.6615 24.2167 28.2297 24.2167C29.7977 24.2167 31.3662 23.8155 32.588 23.0133Z" fill="white" fill-opacity="0.4" style="mix-blend-mode:multiply"/>
<path d="M25.6092 20.4464L26.0345 19.7988L26.0126 19.7844L25.9898 19.7716L25.6092 20.4464ZM30.8506 20.4463L30.4701 19.7715L30.4473 19.7843L30.4254 19.7987L30.8506 20.4463ZM25.6085 20.446L25.1833 21.0937L25.2051 21.108L25.2279 21.1209L25.6085 20.446ZM1.81567 4.82419L1.08466 4.56752L0.883909 5.13926L1.39044 5.47183L1.81567 4.82419ZM54.6437 4.82419L55.0689 5.47183L55.5754 5.13927L55.3747 4.56755L54.6437 4.82419ZM30.8514 20.4459L31.232 21.1208L31.2547 21.1079L31.2766 21.0936L30.8514 20.4459ZM32.5888 23.0128L32.1635 22.3651L32.1534 22.3718L32.1435 22.3788L32.5888 23.0128ZM32.588 23.0133L33.0133 23.6609L33.0234 23.6543L33.0333 23.6473L32.588 23.0133ZM54.9595 8.32448H55.7342V6.88894L54.5342 7.67684L54.9595 8.32448ZM1.5 8.32448L1.92523 7.67684L0.725237 6.88895V8.32448H1.5ZM23.871 23.0129L23.4458 23.6605L23.4601 23.67L23.4749 23.6787L23.871 23.0129ZM23.8715 23.0132L24.2968 22.3656L24.2824 22.3561L24.2676 22.3473L23.8715 23.0132ZM25.184 21.0941C26.0418 21.6574 27.1633 21.9086 28.2298 21.9086C29.2963 21.9086 30.4179 21.6573 31.2759 21.094L30.4254 19.7987C29.8872 20.1521 29.086 20.3591 28.2298 20.3591C27.3736 20.3591 26.5725 20.1521 26.0345 19.7988L25.184 21.0941ZM25.2279 21.1209L25.2286 21.1213L25.9898 19.7716L25.9891 19.7712L25.2279 21.1209ZM1.39044 5.47183L25.1833 21.0937L26.0337 19.7984L2.24089 4.17655L1.39044 5.47183ZM7.26018 0.225237C4.40702 0.225237 1.97241 2.03917 1.08466 4.56752L2.54668 5.08086C3.2199 3.16349 5.07521 1.77476 7.26018 1.77476V0.225237ZM49.1994 0.225237H7.26018V1.77476H49.1994V0.225237ZM55.3747 4.56755C54.487 2.03917 52.0523 0.225237 49.1994 0.225237V1.77476C51.3841 1.77476 53.2395 3.16349 53.9126 5.08083L55.3747 4.56755ZM31.2766 21.0936L55.0689 5.47183L54.2184 4.17655L30.4261 19.7983L31.2766 21.0936ZM31.2312 21.1212L31.232 21.1208L30.4708 19.7711L30.4701 19.7715L31.2312 21.1212ZM32.1435 22.3788L32.1427 22.3793L33.0333 23.6473L33.0341 23.6468L32.1435 22.3788ZM54.5342 7.67684L32.1635 22.3651L33.014 23.6604L55.3847 8.97212L54.5342 7.67684ZM55.7342 34.7604V8.32448H54.1847V34.7604H55.7342ZM49.1995 41.2078C52.7923 41.2078 55.7342 38.3273 55.7342 34.7604H54.1847C54.1847 37.4493 51.9589 39.6583 49.1995 39.6583V41.2078ZM7.26005 41.2078H49.1995V39.6583H7.26005V41.2078ZM0.725237 34.7604C0.725237 38.3274 3.66723 41.2078 7.26005 41.2078V39.6583C4.50059 39.6583 2.27476 37.4493 2.27476 34.7604H0.725237ZM0.725237 8.32448V34.7604H2.27476V8.32448H0.725237ZM24.2962 22.3652L1.92523 7.67684L1.07477 8.97212L23.4458 23.6605L24.2962 22.3652ZM24.2676 22.3473L24.2671 22.347L23.4749 23.6787L23.4754 23.679L24.2676 22.3473ZM28.2297 23.4419C26.7832 23.4419 25.3699 23.0703 24.2968 22.3656L23.4463 23.6608C24.817 24.561 26.5397 24.9914 28.2297 24.9914V23.4419ZM32.1628 22.3656C31.0898 23.0702 29.676 23.4419 28.2297 23.4419V24.9914C29.9194 24.9914 31.6426 24.5609 33.0133 23.6609L32.1628 22.3656Z" fill="white" fill-opacity="0.3"/>
</g>
</g>
<defs>
<filter id="filter0_i_50_2756" x="45.5916" y="12.6206" width="40.9084" height="33.3795" filterUnits="userSpaceOnUse" color-interpolation-filters="sRGB">
<feFlood flood-opacity="0" result="BackgroundImageFix"/>
<feBlend mode="normal" in="SourceGraphic" in2="BackgroundImageFix" result="shape"/>
<feColorMatrix in="SourceAlpha" type="matrix" values="0 0 0 0 0 0 0 0 0 0 0 0 0 0 0 0 0 0 127 0" result="hardAlpha"/>
<feOffset dx="5" dy="5"/>
<feGaussianBlur stdDeviation="2.5"/>
<feComposite in2="hardAlpha" operator="arithmetic" k2="-1" k3="1"/>
<feColorMatrix type="matrix" values="0 0 0 0 0.669993 0 0 0 0 0.719154 0 0 0 0 0.97042 0 0 0 0.788516 0"/>
<feBlend mode="normal" in2="shape" result="effect1_innerShadow_50_2756"/>
</filter>
<filter id="filter1_bi_50_2756" x="-7.4295" y="-7.92963" width="71.3185" height="57.2924" filterUnits="userSpaceOnUse" color-interpolation-filters="sRGB">
<feFlood flood-opacity="0" result="BackgroundImageFix"/>
<feGaussianBlur in="BackgroundImageFix" stdDeviation="4.07742"/>
<feComposite in2="SourceAlpha" operator="in" result="effect1_backgroundBlur_50_2756"/>
<feBlend mode="normal" in="SourceGraphic" in2="effect1_backgroundBlur_50_2756" result="shape"/>
<feColorMatrix in="SourceAlpha" type="matrix" values="0 0 0 0 0 0 0 0 0 0 0 0 0 0 0 0 0 0 127 0" result="hardAlpha"/>
<feOffset dy="-8"/>
<feGaussianBlur stdDeviation="4"/>
<feComposite in2="hardAlpha" operator="arithmetic" k2="-1" k3="1"/>
<feColorMatrix type="matrix" values="0 0 0 0 0.784314 0 0 0 0 0.819608 0 0 0 0 1 0 0 0 0.302557 0"/>
<feBlend mode="normal" in2="shape" result="effect2_innerShadow_50_2756"/>
</filter>
<linearGradient id="paint0_linear_50_2756" x1="31.7567" y1="32.1981" x2="48.6185" y2="-2.47987" gradientUnits="userSpaceOnUse">
<stop stop-color="white"/>
<stop offset="1" stop-color="#929DCE"/>
</linearGradient>
</defs>
</svg>
