<svg width="72" height="42" viewBox="0 0 72 42" fill="none" xmlns="http://www.w3.org/2000/svg">
<g id="icon">
<g id="Combined Shape" filter="url(#filter0_i_50_2777)">
<path fill-rule="evenodd" clip-rule="evenodd" d="M64.2191 6.02319H45.6893C44.6972 6.02319 43.7889 6.58753 43.3438 7.48224L43.2931 7.5844L43.2931 7.58443C42.3615 9.46191 40.2962 13.624 39.6046 15.2031C39.2389 15.9576 39.2254 16.8418 39.5671 17.6143L39.5685 17.6174C39.5756 17.6329 39.5827 17.6485 39.5911 17.6641C40.3944 19.262 42.04 20.3574 43.9388 20.3574C45.403 20.3574 46.7174 19.7056 47.6106 18.6735C48.5038 19.7056 49.8182 20.3574 51.2824 20.3574C52.7466 20.3574 54.061 19.7056 54.9542 18.6735C55.8474 19.7056 57.1617 20.3574 58.626 20.3574C60.0902 20.3574 61.4045 19.7056 62.2978 18.6735C63.191 19.7056 64.5054 20.3574 65.9695 20.3574C67.8399 20.3574 69.4705 19.2906 70.3622 17.7592C70.3832 17.7244 70.4012 17.6867 70.4192 17.649C70.7758 16.8432 70.7549 15.9198 70.3622 15.1307L66.5646 7.48224C66.1194 6.58753 65.2112 6.02319 64.2191 6.02319ZM50.8969 26.4579C51.1772 26.1742 51.5594 26.0158 51.9565 26.0158H57.9513C58.3485 26.0158 58.7306 26.1742 59.0109 26.4579C59.2926 26.74 59.45 27.1248 59.45 27.5246V34.6915H50.4579V27.5246C50.4579 27.1248 50.6152 26.74 50.8969 26.4579ZM41.8403 34.6915V21.5103C42.4982 21.7411 43.2041 21.8663 43.9385 21.8663C45.3053 21.8663 46.5732 21.4318 47.6103 20.6924C48.6489 21.4318 49.9153 21.8663 51.2821 21.8663C52.6489 21.8663 53.9168 21.4318 54.9539 20.6924C55.9909 21.4318 57.2588 21.8663 58.6256 21.8663C59.9924 21.8663 61.2589 21.4318 62.2975 20.6924C63.3346 21.4318 64.6025 21.8663 65.9693 21.8663C66.7021 21.8663 67.408 21.7411 68.0674 21.5103V34.6915H69.9408H71.0648V35.8165C71.0648 35.8187 71.0649 35.8209 71.0649 35.8231C71.0649 35.8253 71.0648 35.8275 71.0648 35.8298V36.9548H69.9408H66.967L66.9434 36.955H42.9644L42.9407 36.9548H39.967H38.843V35.8231V34.6915H39.967H41.8403Z" fill="url(#paint0_linear_50_2777)"/>
</g>
<g id="Rectangle" filter="url(#filter1_bi_50_2777)">
<rect x="1.5" y="1" width="46.4264" height="40" rx="9" fill="#C8D1FF" style="mix-blend-mode:multiply"/>
<rect x="1.5" y="1" width="46.4264" height="40" rx="9" stroke="white" stroke-opacity="0.3" stroke-width="1.54953"/>
</g>
<g id="Path" filter="url(#filter2_d_50_2777)">
<path fill-rule="evenodd" clip-rule="evenodd" d="M41.6764 9.31468C41.6764 10.6803 40.5774 11.7866 39.2212 11.7866C37.865 11.7866 36.7659 10.6803 36.7659 9.31468C36.7659 7.94965 37.865 6.84277 39.2212 6.84277C40.5774 6.84277 41.6764 7.94965 41.6764 9.31468Z" fill="white"/>
</g>
<g id="Path_2" filter="url(#filter3_d_50_2777)">
<path fill-rule="evenodd" clip-rule="evenodd" d="M31.6318 6.84277C32.988 6.84277 34.087 7.94965 34.087 9.31468C34.087 10.6803 32.988 11.7866 31.6318 11.7866C30.2757 11.7866 29.1765 10.6803 29.1765 9.31468C29.1765 7.94965 30.2757 6.84277 31.6318 6.84277Z" fill="white"/>
</g>
<g id="Shape" filter="url(#filter4_d_50_2777)">
<path fill-rule="evenodd" clip-rule="evenodd" d="M12.1237 29.3144H16.3224L16.9222 32.011H19.3567L16.4106 19.4268H12.0355L9.08936 32.011H11.5239L12.1237 29.3144ZM15.8108 27.0494H12.6177L14.0643 20.6135H14.3819L15.8108 27.0494Z" fill="white"/>
</g>
<g id="Shape_2" filter="url(#filter5_d_50_2777)">
<path fill-rule="evenodd" clip-rule="evenodd" d="M23.1096 32.011V27.265H25.7075C26.3661 27.265 26.9394 27.1571 27.4273 26.9414C27.9152 26.7256 28.3207 26.441 28.6439 26.0874C28.9671 25.7339 29.2111 25.3324 29.3757 24.8829C29.5404 24.4335 29.6227 23.9751 29.6227 23.5077V23.0762C29.6227 22.6208 29.5404 22.1743 29.3757 21.7369C29.2111 21.2994 28.9671 20.9099 28.6439 20.5683C28.3207 20.2268 27.9152 19.9511 27.4273 19.7414C26.9394 19.5316 26.3661 19.4268 25.7075 19.4268H20.6946V32.011H23.1096ZM25.4706 24.9998H23.1105V21.692H25.4706C26.0073 21.692 26.4311 21.8358 26.7421 22.1234C27.0532 22.4111 27.2087 22.7826 27.2087 23.238V23.4538C27.2087 23.9092 27.0532 24.2807 26.7421 24.5684C26.4311 24.856 26.0073 24.9998 25.4706 24.9998Z" fill="white"/>
</g>
<g id="Path_3" filter="url(#filter6_d_50_2777)">
<path d="M31.8557 19.4269H40.3375V21.692H37.2927V29.746H40.3375V32.0111H31.8557V29.746H34.9004V21.692H31.8557V19.4269Z" fill="white"/>
</g>
</g>
<defs>
<filter id="filter0_i_50_2777" x="38.843" y="6.02319" width="37.2219" height="35.9318" filterUnits="userSpaceOnUse" color-interpolation-filters="sRGB">
<feFlood flood-opacity="0" result="BackgroundImageFix"/>
<feBlend mode="normal" in="SourceGraphic" in2="BackgroundImageFix" result="shape"/>
<feColorMatrix in="SourceAlpha" type="matrix" values="0 0 0 0 0 0 0 0 0 0 0 0 0 0 0 0 0 0 127 0" result="hardAlpha"/>
<feOffset dx="5" dy="5"/>
<feGaussianBlur stdDeviation="2.5"/>
<feComposite in2="hardAlpha" operator="arithmetic" k2="-1" k3="1"/>
<feColorMatrix type="matrix" values="0 0 0 0 0.784314 0 0 0 0 0.819608 0 0 0 0 1 0 0 0 0.45593 0"/>
<feBlend mode="normal" in2="shape" result="effect1_innerShadow_50_2777"/>
</filter>
<filter id="filter1_bi_50_2777" x="-41.3951" y="-41.8953" width="132.217" height="125.791" filterUnits="userSpaceOnUse" color-interpolation-filters="sRGB">
<feFlood flood-opacity="0" result="BackgroundImageFix"/>
<feGaussianBlur in="BackgroundImageFix" stdDeviation="21.0602"/>
<feComposite in2="SourceAlpha" operator="in" result="effect1_backgroundBlur_50_2777"/>
<feBlend mode="normal" in="SourceGraphic" in2="effect1_backgroundBlur_50_2777" result="shape"/>
<feColorMatrix in="SourceAlpha" type="matrix" values="0 0 0 0 0 0 0 0 0 0 0 0 0 0 0 0 0 0 127 0" result="hardAlpha"/>
<feMorphology radius="0.774763" operator="erode" in="SourceAlpha" result="effect2_innerShadow_50_2777"/>
<feOffset dy="-8"/>
<feGaussianBlur stdDeviation="4"/>
<feComposite in2="hardAlpha" operator="arithmetic" k2="-1" k3="1"/>
<feColorMatrix type="matrix" values="0 0 0 0 0.784314 0 0 0 0 0.819608 0 0 0 0 1 0 0 0 0.302557 0"/>
<feBlend mode="normal" in2="shape" result="effect2_innerShadow_50_2777"/>
</filter>
<filter id="filter2_d_50_2777" x="30.7659" y="2.84277" width="16.9104" height="16.9438" filterUnits="userSpaceOnUse" color-interpolation-filters="sRGB">
<feFlood flood-opacity="0" result="BackgroundImageFix"/>
<feColorMatrix in="SourceAlpha" type="matrix" values="0 0 0 0 0 0 0 0 0 0 0 0 0 0 0 0 0 0 127 0" result="hardAlpha"/>
<feOffset dy="2"/>
<feGaussianBlur stdDeviation="3"/>
<feColorMatrix type="matrix" values="0 0 0 0 0.0509804 0 0 0 0 0.133333 0 0 0 0 0.521569 0 0 0 0.15 0"/>
<feBlend mode="normal" in2="BackgroundImageFix" result="effect1_dropShadow_50_2777"/>
<feBlend mode="normal" in="SourceGraphic" in2="effect1_dropShadow_50_2777" result="shape"/>
</filter>
<filter id="filter3_d_50_2777" x="23.1765" y="2.84277" width="16.9104" height="16.9438" filterUnits="userSpaceOnUse" color-interpolation-filters="sRGB">
<feFlood flood-opacity="0" result="BackgroundImageFix"/>
<feColorMatrix in="SourceAlpha" type="matrix" values="0 0 0 0 0 0 0 0 0 0 0 0 0 0 0 0 0 0 127 0" result="hardAlpha"/>
<feOffset dy="2"/>
<feGaussianBlur stdDeviation="3"/>
<feColorMatrix type="matrix" values="0 0 0 0 0.0509804 0 0 0 0 0.133333 0 0 0 0 0.521569 0 0 0 0.15 0"/>
<feBlend mode="normal" in2="BackgroundImageFix" result="effect1_dropShadow_50_2777"/>
<feBlend mode="normal" in="SourceGraphic" in2="effect1_dropShadow_50_2777" result="shape"/>
</filter>
<filter id="filter4_d_50_2777" x="5.08936" y="17.4268" width="18.2673" height="20.5842" filterUnits="userSpaceOnUse" color-interpolation-filters="sRGB">
<feFlood flood-opacity="0" result="BackgroundImageFix"/>
<feColorMatrix in="SourceAlpha" type="matrix" values="0 0 0 0 0 0 0 0 0 0 0 0 0 0 0 0 0 0 127 0" result="hardAlpha"/>
<feOffset dy="2"/>
<feGaussianBlur stdDeviation="2"/>
<feColorMatrix type="matrix" values="0 0 0 0 0.0509804 0 0 0 0 0.133333 0 0 0 0 0.521569 0 0 0 0.1 0"/>
<feBlend mode="normal" in2="BackgroundImageFix" result="effect1_dropShadow_50_2777"/>
<feBlend mode="normal" in="SourceGraphic" in2="effect1_dropShadow_50_2777" result="shape"/>
</filter>
<filter id="filter5_d_50_2777" x="16.6946" y="17.4268" width="16.9282" height="20.5842" filterUnits="userSpaceOnUse" color-interpolation-filters="sRGB">
<feFlood flood-opacity="0" result="BackgroundImageFix"/>
<feColorMatrix in="SourceAlpha" type="matrix" values="0 0 0 0 0 0 0 0 0 0 0 0 0 0 0 0 0 0 127 0" result="hardAlpha"/>
<feOffset dy="2"/>
<feGaussianBlur stdDeviation="2"/>
<feColorMatrix type="matrix" values="0 0 0 0 0.0509804 0 0 0 0 0.133333 0 0 0 0 0.521569 0 0 0 0.1 0"/>
<feBlend mode="normal" in2="BackgroundImageFix" result="effect1_dropShadow_50_2777"/>
<feBlend mode="normal" in="SourceGraphic" in2="effect1_dropShadow_50_2777" result="shape"/>
</filter>
<filter id="filter6_d_50_2777" x="27.8557" y="17.4269" width="16.4817" height="20.5842" filterUnits="userSpaceOnUse" color-interpolation-filters="sRGB">
<feFlood flood-opacity="0" result="BackgroundImageFix"/>
<feColorMatrix in="SourceAlpha" type="matrix" values="0 0 0 0 0 0 0 0 0 0 0 0 0 0 0 0 0 0 127 0" result="hardAlpha"/>
<feOffset dy="2"/>
<feGaussianBlur stdDeviation="2"/>
<feColorMatrix type="matrix" values="0 0 0 0 0.0509804 0 0 0 0 0.133333 0 0 0 0 0.521569 0 0 0 0.1 0"/>
<feBlend mode="normal" in2="BackgroundImageFix" result="effect1_dropShadow_50_2777"/>
<feBlend mode="normal" in="SourceGraphic" in2="effect1_dropShadow_50_2777" result="shape"/>
</filter>
<linearGradient id="paint0_linear_50_2777" x1="83.4792" y1="27.3613" x2="63.0163" y2="-7.28601" gradientUnits="userSpaceOnUse">
<stop stop-color="#0D2285"/>
<stop offset="1" stop-color="#2B47CA"/>
</linearGradient>
</defs>
</svg>
