<svg width="71" height="42" viewBox="0 0 71 42" fill="none" xmlns="http://www.w3.org/2000/svg">
<g id="icon">
<g id="Group 16">
<g id="Fill 1" filter="url(#filter0_i_50_2806)">
<path fill-rule="evenodd" clip-rule="evenodd" d="M54.4198 8.14282C63.0639 8.14282 70.0713 15.1783 70.0713 23.8571C70.0713 32.5359 63.0639 39.5714 54.4198 39.5714C45.7757 39.5714 38.7683 32.5359 38.7683 23.8571C38.7683 15.1783 45.7757 8.14282 54.4198 8.14282Z" fill="url(#paint0_linear_50_2806)"/>
</g>
<path id="Fill 3" fill-rule="evenodd" clip-rule="evenodd" d="M50.7893 31.1129L45.7422 25.7173C45.0512 24.9787 45.0909 23.8099 45.8304 23.1198C46.57 22.4296 47.74 22.4694 48.431 23.2079L52.3241 27.3698L58.4864 21.6189C58.5418 21.5671 58.5997 21.5197 58.6596 21.4761L61.5575 18.7717C62.297 18.0815 63.4672 18.1213 64.1581 18.8599C64.8491 19.5985 64.8093 20.7673 64.0699 21.4575L55.219 29.7175L55.2095 29.7074L52.1479 32.5646L50.7893 31.1122V31.1129Z" fill="white"/>
</g>
<g id="Combined Shape" filter="url(#filter1_bi_50_2806)">
<path fill-rule="evenodd" clip-rule="evenodd" d="M24.2657 1C24.4842 1 24.6955 1.0309 24.8955 1.0886C25.2318 0.94672 25.6184 0.975243 25.9344 1.17417L38.1776 9.00002H42.4794C43.108 9.00012 43.6176 9.51174 43.6176 10.1429V11.2858H41.7535L43.5416 12.4287H43.6177C43.6176 12.4448 43.6175 12.4609 43.6172 12.477L48.0866 15.3339C48.9409 15.8376 49.3521 16.8699 49.0853 17.8408C48.7546 18.8997 47.7771 19.6057 46.6907 19.5701H41.3412V29.7774C42.7022 30.2604 43.6136 31.5508 43.6176 33.0002H32.2347C32.2388 31.5508 33.1502 30.2604 34.5113 29.7774V19.5701H27.6805V29.7774C29.0415 30.2604 29.9529 31.5508 29.9569 33.0002H18.574C18.578 31.5508 19.4895 30.2604 20.8505 29.7774V19.5701H14.0216V29.7774C15.3826 30.2604 16.294 31.5508 16.298 33.0002H4.91518C4.91919 31.5508 5.83068 30.2604 7.19169 29.7774V19.5701H3.97515C2.88879 19.6057 1.91127 18.8997 1.58059 17.8408C1.31387 16.8699 1.72508 15.8376 2.57934 15.3339L5.1568 13.6863C5.00121 13.2939 4.9164 12.8686 4.91518 12.4287H7.12433L8.91237 11.2858H4.91518V10.1429C4.91518 9.51174 5.42485 9.00002 6.05348 9.00002H12.4883L22.0203 2.90717C22.1999 1.82496 23.1369 1 24.2657 1ZM28.7379 11.4458C28.7369 11.7872 28.688 12.117 28.5978 12.4287H22.0663C21.9768 12.117 21.9288 11.7871 21.9288 11.4458C21.9288 11.3921 21.9299 11.3388 21.9323 11.2858H28.7344C28.7367 11.3388 28.7379 11.3921 28.7379 11.4458ZM27.7565 9.00002C27.1392 8.36038 26.2815 7.96394 25.3333 7.96394C24.3851 7.96394 23.5274 8.36038 22.9101 9.00002H27.7565ZM3.77651 34.1429H44.7551C46.011 34.1467 47.0279 35.1678 47.0316 36.4286V38.7143C47.0279 39.975 46.011 40.9962 44.7551 41H3.77651C2.52083 40.9962 1.50374 39.975 1.5 38.7143V36.4286C1.50374 35.1678 2.52083 34.1467 3.77651 34.1429Z" fill="#C8D1FF" style="mix-blend-mode:multiply"/>
<path d="M24.8955 1.0886L24.6808 1.83301L24.9442 1.90898L25.1967 1.80242L24.8955 1.0886ZM25.9344 1.17417L26.3517 0.521354L26.3472 0.518523L25.9344 1.17417ZM38.1776 9.00002L37.7603 9.65282L37.9511 9.77479H38.1776V9.00002ZM42.4794 9.00002L42.4795 8.22526H42.4794V9.00002ZM43.6176 11.2858V12.0605H44.3924V11.2858H43.6176ZM41.7535 11.2858V10.511H39.1029L41.3363 11.9386L41.7535 11.2858ZM43.5416 12.4287L43.1243 13.0815L43.3151 13.2035H43.5416V12.4287ZM43.6177 12.4287L44.3925 12.4309L44.3947 11.6539H43.6177V12.4287ZM43.6172 12.477L42.8426 12.464L42.8353 12.8967L43.2 13.1298L43.6172 12.477ZM48.0866 15.3339L47.6693 15.9867L47.6811 15.9942L47.6931 16.0012L48.0866 15.3339ZM49.0853 17.8408L49.8248 18.0717L49.8288 18.059L49.8323 18.0461L49.0853 17.8408ZM46.6907 19.5701L46.7161 18.7958L46.7034 18.7954H46.6907V19.5701ZM41.3412 19.5701V18.7954H40.5664V19.5701H41.3412ZM41.3412 29.7774H40.5664V30.3245L41.082 30.5075L41.3412 29.7774ZM43.6176 33.0002V33.775H44.3945L44.3924 32.9981L43.6176 33.0002ZM32.2347 33.0002L31.46 32.9981L31.4578 33.775H32.2347V33.0002ZM34.5113 29.7774L34.7704 30.5075L35.286 30.3245V29.7774H34.5113ZM34.5113 19.5701H35.286V18.7954H34.5113V19.5701ZM27.6805 19.5701V18.7954H26.9057V19.5701H27.6805ZM27.6805 29.7774H26.9057V30.3245L27.4213 30.5075L27.6805 29.7774ZM29.9569 33.0002V33.775H30.7338L30.7316 32.9981L29.9569 33.0002ZM18.574 33.0002L17.7993 32.9981L17.7971 33.775H18.574V33.0002ZM20.8505 29.7774L21.1097 30.5075L21.6253 30.3245V29.7774H20.8505ZM20.8505 19.5701H21.6253V18.7954H20.8505V19.5701ZM14.0216 19.5701V18.7954H13.2468V19.5701H14.0216ZM14.0216 29.7774H13.2468V30.3245L13.7625 30.5075L14.0216 29.7774ZM16.298 33.0002V33.775H17.0749L17.0728 32.9981L16.298 33.0002ZM4.91518 33.0002L4.14042 32.9981L4.13827 33.775H4.91518V33.0002ZM7.19169 29.7774L7.45082 30.5075L7.96646 30.3245V29.7774H7.19169ZM7.19169 19.5701H7.96646V18.7954H7.19169V19.5701ZM3.97515 19.5701V18.7954H3.96245L3.94976 18.7958L3.97515 19.5701ZM1.58059 17.8408L0.833507 18.046L0.837055 18.059L0.841047 18.0717L1.58059 17.8408ZM2.57934 15.3339L2.97289 16.0012L2.98488 15.9942L2.99661 15.9867L2.57934 15.3339ZM5.1568 13.6863L5.57407 14.3391L6.11257 13.9949L5.87703 13.4008L5.1568 13.6863ZM4.91518 12.4287V11.6539H4.13827L4.14042 12.4308L4.91518 12.4287ZM7.12433 12.4287V13.2035H7.35079L7.5416 13.0815L7.12433 12.4287ZM8.91237 11.2858L9.32964 11.9386L11.563 10.511H8.91237V11.2858ZM4.91518 11.2858H4.14042V12.0605H4.91518V11.2858ZM12.4883 9.00002V9.77479H12.7148L12.9056 9.65282L12.4883 9.00002ZM22.0203 2.90717L22.4375 3.55997L22.7281 3.37423L22.7846 3.03403L22.0203 2.90717ZM28.5978 12.4287V13.2035H29.18L29.3419 12.6442L28.5978 12.4287ZM28.7379 11.4458L29.5127 11.448V11.4458H28.7379ZM22.0663 12.4287L21.3216 12.6425L21.4827 13.2035H22.0663V12.4287ZM21.9323 11.2858V10.511H21.191L21.1583 11.2515L21.9323 11.2858ZM28.7344 11.2858L29.5084 11.2515L29.4756 10.511H28.7344V11.2858ZM27.7565 9.00002V9.77479H29.581L28.314 8.462L27.7565 9.00002ZM22.9101 9.00002L22.3526 8.462L21.0857 9.77479H22.9101V9.00002ZM44.7551 34.1429L44.7575 33.3681H44.7551V34.1429ZM3.77651 34.1429V33.3681L3.7742 33.3681L3.77651 34.1429ZM47.0316 36.4286H47.8064L47.8064 36.4263L47.0316 36.4286ZM47.0316 38.7143L47.8064 38.7166V38.7143H47.0316ZM44.7551 41V41.7747L44.7574 41.7747L44.7551 41ZM3.77651 41L3.7742 41.7747H3.77651V41ZM1.5 38.7143H0.725234L0.72524 38.7166L1.5 38.7143ZM1.5 36.4286L0.725237 36.4263V36.4286H1.5ZM25.1102 0.344181C24.8412 0.266566 24.5576 0.225237 24.2657 0.225237V1.77476C24.4108 1.77476 24.5499 1.79524 24.6808 1.83301L25.1102 0.344181ZM26.3472 0.518523C25.8156 0.183853 25.1622 0.135149 24.5943 0.374776L25.1967 1.80242C25.3013 1.75829 25.4213 1.76663 25.5216 1.82981L26.3472 0.518523ZM38.5949 8.34723L26.3517 0.521369L25.5171 1.82696L37.7603 9.65282L38.5949 8.34723ZM42.4794 8.22526H38.1776V9.77479H42.4794V8.22526ZM44.3924 10.1429C44.3924 9.08675 43.5388 8.22542 42.4795 8.22526L42.4793 9.77479C42.6772 9.77482 42.8428 9.93672 42.8428 10.1429H44.3924ZM44.3924 11.2858V10.1429H42.8428V11.2858H44.3924ZM41.7535 12.0605H43.6176V10.511H41.7535V12.0605ZM43.9589 11.7759L42.1708 10.633L41.3363 11.9386L43.1243 13.0815L43.9589 11.7759ZM43.6177 11.6539H43.5416V13.2035H43.6177V11.6539ZM44.3919 12.4901C44.3922 12.4702 44.3924 12.4504 44.3925 12.4309L42.8429 12.4265C42.8429 12.4392 42.8428 12.4517 42.8426 12.464L44.3919 12.4901ZM48.5039 14.6811L44.0345 11.8242L43.2 13.1298L47.6693 15.9867L48.5039 14.6811ZM49.8323 18.0461C50.1898 16.7452 49.6423 15.3518 48.4802 14.6665L47.6931 16.0012C48.2395 16.3235 48.5143 16.9946 48.3382 17.6355L49.8323 18.0461ZM46.6653 20.3445C48.1099 20.3918 49.3933 19.4535 49.8248 18.0717L48.3457 17.6099C48.1158 18.346 47.4442 18.8197 46.7161 18.7958L46.6653 20.3445ZM41.3412 20.3449H46.6907V18.7954H41.3412V20.3449ZM42.1159 29.7774V19.5701H40.5664V29.7774H42.1159ZM44.3924 32.9981C44.3874 31.2231 43.2712 29.6403 41.6003 29.0472L41.082 30.5075C42.1332 30.8806 42.8397 31.8785 42.8428 33.0024L44.3924 32.9981ZM32.2347 33.775H43.6176V32.2255H32.2347V33.775ZM34.2521 29.0472C32.5812 29.6402 31.4649 31.223 31.46 32.9981L33.0095 33.0024C33.0126 31.8785 33.7192 30.8806 34.7704 30.5075L34.2521 29.0472ZM33.7365 19.5701V29.7774H35.286V19.5701H33.7365ZM27.6805 20.3449H34.5113V18.7954H27.6805V20.3449ZM28.4552 29.7774V19.5701H26.9057V29.7774H28.4552ZM30.7316 32.9981C30.7267 31.2231 29.6105 29.6403 27.9396 29.0472L27.4213 30.5075C28.4724 30.8806 29.179 31.8785 29.1821 33.0024L30.7316 32.9981ZM18.574 33.775H29.9569V32.2255H18.574V33.775ZM20.5914 29.0472C18.9205 29.6402 17.8042 31.223 17.7993 32.9981L19.3488 33.0024C19.3519 31.8785 20.0585 30.8806 21.1097 30.5075L20.5914 29.0472ZM20.0758 19.5701V29.7774H21.6253V19.5701H20.0758ZM14.0216 20.3449H20.8505V18.7954H14.0216V20.3449ZM14.7964 29.7774V19.5701H13.2468V29.7774H14.7964ZM17.0728 32.9981C17.0679 31.2231 15.9517 29.6403 14.2807 29.0472L13.7625 30.5075C14.8136 30.8806 15.5202 31.8785 15.5233 33.0024L17.0728 32.9981ZM4.91518 33.775H16.298V32.2255H4.91518V33.775ZM6.93256 29.0472C5.26167 29.6402 4.14534 31.223 4.14042 32.9981L5.68994 33.0024C5.69305 31.8785 6.39968 30.8806 7.45082 30.5075L6.93256 29.0472ZM6.41693 19.5701V29.7774H7.96646V19.5701H6.41693ZM3.97515 20.3449H7.19169V18.7954H3.97515V20.3449ZM0.841047 18.0717C1.27252 19.4535 2.55597 20.3918 4.00053 20.3445L3.94976 18.7958C3.22162 18.8197 2.55002 18.346 2.32013 17.6099L0.841047 18.0717ZM2.18579 14.6665C1.02369 15.3518 0.476126 16.7452 0.833507 18.046L2.32767 17.6356C2.15161 16.9947 2.42646 16.3235 2.97289 16.0012L2.18579 14.6665ZM4.73953 13.0335L2.16207 14.6811L2.99661 15.9867L5.57407 14.3391L4.73953 13.0335ZM4.14042 12.4308C4.14191 12.9693 4.24579 13.4906 4.43657 13.9719L5.87703 13.4008C5.75662 13.0971 5.69088 12.7679 5.68994 12.4265L4.14042 12.4308ZM7.12433 11.6539H4.91518V13.2035H7.12433V11.6539ZM8.4951 10.633L6.70706 11.7759L7.5416 13.0815L9.32964 11.9386L8.4951 10.633ZM4.91518 12.0605H8.91237V10.511H4.91518V12.0605ZM4.14042 10.1429V11.2858H5.68994V10.1429H4.14042ZM6.05348 8.22526C4.99403 8.22526 4.14042 9.08678 4.14042 10.1429H5.68994C5.68994 9.9367 5.85566 9.77479 6.05348 9.77479V8.22526ZM12.4883 8.22526H6.05348V9.77479H12.4883V8.22526ZM21.603 2.25437L12.071 8.34723L12.9056 9.65282L22.4375 3.55997L21.603 2.25437ZM24.2657 0.225237C22.7495 0.225237 21.4963 1.33268 21.256 2.78031L22.7846 3.03403C22.9036 2.31725 23.5242 1.77476 24.2657 1.77476V0.225237ZM29.3419 12.6442C29.4521 12.2638 29.5114 11.8622 29.5127 11.448L27.9631 11.4435C27.9623 11.7121 27.9239 11.9702 27.8536 12.2132L29.3419 12.6442ZM22.0663 13.2035H28.5978V11.6539H22.0663V13.2035ZM21.154 11.4458C21.154 11.8601 21.2123 12.2619 21.3216 12.6425L22.811 12.2148C22.7412 11.972 22.7035 11.7141 22.7035 11.4458H21.154ZM21.1583 11.2515C21.1554 11.316 21.154 11.3807 21.154 11.4458H22.7035C22.7035 11.4035 22.7045 11.3616 22.7063 11.32L21.1583 11.2515ZM28.7344 10.511H21.9323V12.0605H28.7344V10.511ZM29.5127 11.4458C29.5127 11.3807 29.5112 11.316 29.5084 11.2515L27.9604 11.32C27.9622 11.3616 27.9631 11.4035 27.9631 11.4458H29.5127ZM25.3333 8.7387C26.0601 8.7387 26.7198 9.04144 27.199 9.53804L28.314 8.462C27.5586 7.67932 26.503 7.18917 25.3333 7.18917V8.7387ZM23.4676 9.53804C23.9469 9.04144 24.6066 8.7387 25.3333 8.7387V7.18917C24.1637 7.18917 23.108 7.67932 22.3526 8.462L23.4676 9.53804ZM27.7565 8.22526H22.9101V9.77479H27.7565V8.22526ZM44.7551 33.3681H3.77651V34.9177H44.7551V33.3681ZM47.8064 36.4263C47.8014 34.7423 46.4423 33.3733 44.7575 33.3681L44.7527 34.9177C45.5797 34.9202 46.2544 35.5933 46.2568 36.4309L47.8064 36.4263ZM47.8064 38.7143V36.4286H46.2568V38.7143H47.8064ZM44.7574 41.7747C46.4423 41.7697 47.8014 40.4005 47.8064 38.7166L46.2568 38.712C46.2544 39.5496 45.5796 40.2227 44.7528 40.2252L44.7574 41.7747ZM3.77651 41.7747H44.7551V40.2252H3.77651V41.7747ZM0.72524 38.7166C0.730229 40.4005 2.08953 41.7697 3.7742 41.7747L3.77883 40.2252C2.95213 40.2227 2.27724 39.5495 2.27476 38.712L0.72524 38.7166ZM0.725237 36.4286V38.7143H2.27476V36.4286H0.725237ZM3.7742 33.3681C2.08953 33.3732 0.730229 34.7424 0.72524 36.4263L2.27476 36.4309C2.27724 35.5933 2.95213 34.9201 3.77883 34.9177L3.7742 33.3681Z" fill="white" fill-opacity="0.3"/>
</g>
</g>
<defs>
<filter id="filter0_i_50_2806" x="38.7683" y="8.14282" width="36.303" height="36.4286" filterUnits="userSpaceOnUse" color-interpolation-filters="sRGB">
<feFlood flood-opacity="0" result="BackgroundImageFix"/>
<feBlend mode="normal" in="SourceGraphic" in2="BackgroundImageFix" result="shape"/>
<feColorMatrix in="SourceAlpha" type="matrix" values="0 0 0 0 0 0 0 0 0 0 0 0 0 0 0 0 0 0 127 0" result="hardAlpha"/>
<feOffset dx="5" dy="5"/>
<feGaussianBlur stdDeviation="2.5"/>
<feComposite in2="hardAlpha" operator="arithmetic" k2="-1" k3="1"/>
<feColorMatrix type="matrix" values="0 0 0 0 0.784314 0 0 0 0 0.819608 0 0 0 0 1 0 0 0 0.45593 0"/>
<feBlend mode="normal" in2="shape" result="effect1_innerShadow_50_2806"/>
</filter>
<filter id="filter1_bi_50_2806" x="-41.3951" y="-41.8953" width="133.456" height="125.79" filterUnits="userSpaceOnUse" color-interpolation-filters="sRGB">
<feFlood flood-opacity="0" result="BackgroundImageFix"/>
<feGaussianBlur in="BackgroundImageFix" stdDeviation="21.0602"/>
<feComposite in2="SourceAlpha" operator="in" result="effect1_backgroundBlur_50_2806"/>
<feBlend mode="normal" in="SourceGraphic" in2="effect1_backgroundBlur_50_2806" result="shape"/>
<feColorMatrix in="SourceAlpha" type="matrix" values="0 0 0 0 0 0 0 0 0 0 0 0 0 0 0 0 0 0 127 0" result="hardAlpha"/>
<feOffset dy="-8"/>
<feGaussianBlur stdDeviation="4"/>
<feComposite in2="hardAlpha" operator="arithmetic" k2="-1" k3="1"/>
<feColorMatrix type="matrix" values="0 0 0 0 0.784314 0 0 0 0 0.819608 0 0 0 0 1 0 0 0 0.302557 0"/>
<feBlend mode="normal" in2="shape" result="effect2_innerShadow_50_2806"/>
</filter>
<linearGradient id="paint0_linear_50_2806" x1="82.1316" y1="29.8237" x2="60.9014" y2="-4.54572" gradientUnits="userSpaceOnUse">
<stop stop-color="#0D2285"/>
<stop offset="1" stop-color="#2B47CA"/>
</linearGradient>
</defs>
</svg>
